PathFileType	4	(X/Y/Z)	C:\Users\chris\Documents\GitHub\baseballds\vids\pitch6_Sports2D\pitch6_Sports2D_px_person00.trc
DataRate	CameraRate	NumFrames	NumMarkers	Units	OrigDataRate	OrigDataStartFrame	OrigNumFrames
30	30	10	22	m	30	93	186
Frame#	Time	Hip			RHip			RKnee			RAnkle			RBigToe			RSmallToe			RHeel			LHip			LKnee			LAnkle			LBigToe			LSmallToe			LHeel			Neck			Head			Nose			RShoulder			RElbow			RWrist			LShoulder			LElbow			LWrist		
		X1	Y1	Z1	X2	Y2	Z2	X3	Y3	Z3	X4	Y4	Z4	X5	Y5	Z5	X6	Y6	Z6	X7	Y7	Z7	X8	Y8	Z8	X9	Y9	Z9	X10	Y10	Z10	X11	Y11	Z11	X12	Y12	Z12	X13	Y13	Z13	X14	Y14	Z14	X15	Y15	Z15	X16	Y16	Z16	X17	Y17	Z17	X18	Y18	Z18	X19	Y19	Z19	X20	Y20	Z20	X21	Y21	Z21	X22	Y22	Z22
93	3.1	725.403250152481	622.3700885270881	0.0	679.0758677453427	631.2646954394421	0.0	672.9422637093555	810.2666795290693	0.0	670.1350009226758	964.5097605979558	0.0	665.9842267307865	1021.0122358934216	0.0	640.2135636908808	1015.5150031345565	0.0	680.2332435114112	985.9724391141327	0.0	772.6761946129245	632.4800880721857	0.0	790.5472170509047	805.8540120936934	0.0	817.2848072528723	955.5477694274172	0.0	792.0788845029944	1011.4617220641271	0.0	822.6339060677819	1011.0638563691982	0.0	826.9910962031586	974.4654498163057	0.0	720.356839200236	374.0354945158409	0.0	734.4225075849795	260.1979924810777	0.0	774.3480504806023	319.22244226452074	0.0	644.1672670497389	420.2552932397293	0.0	610.628259462796	541.0449361530896	0.0	683.3635253250916	542.347213809761	0.0	798.0498962141378	408.76469496672394	0.0	828.2153868527365	525.4779009082672	0.0	787.315013437349	558.2701443268318	0.0
94	3.1333333333333333	722.5126319283492	619.7331744304367	0.0	676.1028547616365	628.0159916077407	0.0	671.3670676545976	808.8809692772338	0.0	669.9070476851407	964.6164667785151	0.0	665.2442318976314	1021.762205293983	0.0	639.5843524065015	1015.8104536461568	0.0	680.8062283751726	985.4161677919275	0.0	770.6778752105353	629.1408565681129	0.0	789.9056046712954	803.9903294843024	0.0	816.8319547082478	954.6053646200835	0.0	791.976657903077	1009.9324149321874	0.0	822.8848812556259	1009.6232311045899	0.0	827.808784491987	973.2452931597692	0.0	717.2623742872493	372.414750757204	0.0	730.3792588607306	258.3565707512683	0.0	770.0227548572093	316.43248113943145	0.0	641.1683306023193	418.4002455401002	0.0	606.4949660983716	540.5877889074334	0.0	682.8372762906805	537.1300088383399	0.0	795.3432219303709	407.3601194356402	0.0	828.664460276294	523.3454313226148	0.0	785.9119574961559	551.2459445305913	0.0
95	3.1666666666666665	719.1450066347588	618.8616208967321	0.0	672.048204933576	627.4419762461738	0.0	669.572007620604	808.2138221471804	0.0	669.5670821543004	964.1278901776936	0.0	665.4504938540479	1021.6522592388782	0.0	639.6913402506124	1015.7077342035133	0.0	681.028511211402	983.6418870441696	0.0	767.7730238157079	627.8746734038109	0.0	788.5853548207185	802.8346196166536	0.0	816.6378168829979	953.3925885481083	0.0	792.0798981735956	1008.4212710866564	0.0	822.6476451001411	1007.2579870159196	0.0	828.2020035208061	972.2990789710552	0.0	713.0374853640917	370.41325754741615	0.0	725.5457986550275	256.2122885831543	0.0	765.6583435173359	313.3509719652585	0.0	637.2276191099551	416.38862323988866	0.0	603.4964326658243	539.5135687386235	0.0	680.0994900558552	532.939652551244	0.0	791.7523918521902	406.11482191256135	0.0	828.7747550560264	523.3191766670716	0.0	780.6421859920861	544.1655158306987	0.0
96	3.2	716.1495741072397	618.6159582208569	0.0	667.9143540393218	628.4166649048552	0.0	668.0476339065044	807.4665040605136	0.0	668.7893126375473	963.1637034236635	0.0	666.4776158871817	1020.5881213661046	0.0	640.5385355537369	1015.145034358568	0.0	680.4242487385917	981.9660635808436	0.0	764.5929706992233	627.8244914242371	0.0	786.6989623366991	801.898783302745	0.0	816.9364628131702	952.3005258227516	0.0	792.3484801415137	1007.3909147974841	0.0	822.1437143822424	1005.0485254826431	0.0	827.8401788074094	972.1487447175442	0.0	708.7403096073683	367.73481588867656	0.0	720.6625131051642	254.10383796017675	0.0	761.2101892547264	310.5383073924695	0.0	633.0981341660431	414.25557406769616	0.0	601.1905418110001	537.2922081983834	0.0	676.0228715327901	529.2446052001786	0.0	787.8679283076544	404.47894773757776	0.0	825.9555300919164	524.7137958267741	0.0	771.8070948930704	536.7283412070492	0.0
97	3.2333333333333334	713.7341136453412	617.2883087907885	0.0	664.5658754634806	628.2317453403182	0.0	667.0716187856548	805.5881090156306	0.0	667.6791474611691	962.0114777973888	0.0	667.7202504638074	1018.8700147356867	0.0	641.6054108379623	1014.3570169860724	0.0	679.1942917689412	981.5546747525126	0.0	761.7593524269693	627.1382173452498	0.0	784.255217191125	800.7383700180983	0.0	817.1256239945745	951.1774571568385	0.0	793.0686965191544	1006.8334936312466	0.0	822.2109167590618	1003.87130078072	0.0	826.4307901233219	972.1642933871378	0.0	704.8571144605633	364.48577654729263	0.0	715.8281829437783	252.11419481403658	0.0	756.1551158602388	307.71634435418395	0.0	628.9674003695316	411.7086454158529	0.0	598.4988307879205	534.1734098653177	0.0	671.6298594921491	524.4520324309036	0.0	783.695737115027	401.7861731695516	0.0	820.4485885878485	524.8859392548593	0.0	762.2011800211042	529.4186399559483	0.0
98	3.2666666666666666	711.2099772016611	614.082615272772	0.0	662.0605066850607	624.9816276367592	0.0	666.0825511982595	802.7432520968853	0.0	666.8299410979166	960.00471339561	0.0	668.7211572586402	1016.8908930400515	0.0	642.3920654646392	1013.0794204248662	0.0	677.8247812397824	980.497283649174	0.0	758.7240094813355	624.3831246114104	0.0	780.7477705833143	799.6409119940531	0.0	816.4006998208577	948.5358966719623	0.0	794.4467110317214	1006.1178201222867	0.0	823.1279841255966	1002.8517278623469	0.0	823.889030927225	970.0332795931963	0.0	701.144010399221	361.1166452763559	0.0	710.8511927337216	249.5092705400352	0.0	750.7158486431836	304.3057481101213	0.0	624.0268791631422	408.62363576607106	0.0	595.2177207923017	530.9750712719737	0.0	665.8804208683865	518.1276469358907	0.0	779.5971047782516	398.3268765108972	0.0	814.4659968289911	523.3190682472175	0.0	755.4621264078621	523.2593469292891	0.0
99	3.3	707.8852838869069	609.4998624988511	0.0	659.9584457085768	619.234452876731	0.0	664.4287004294664	799.7148174239194	0.0	666.5814972134622	956.6145596754361	0.0	669.1133171466655	1014.6426094017421	0.0	642.7303517658527	1010.8144628092291	0.0	676.7901286653279	977.0367974412225	0.0	754.8521931297323	619.6129393871125	0.0	776.0020099594578	799.1707486682249	0.0	814.0316893663603	942.660841276045	0.0	795.5673040894561	1003.8768500645706	0.0	824.0883150698578	1000.1906047876514	0.0	820.1857932521766	962.9948726093528	0.0	697.5765665744323	357.94360358092763	0.0	706.2145565715795	245.9769382022311	0.0	746.1400014322317	300.5087795608942	0.0	618.3826467517645	405.0829280135875	0.0	591.4600340420017	527.7478227036074	0.0	658.1333735242946	511.29927124319005	0.0	776.1153153524889	394.88535016992785	0.0	809.5806131036592	521.46410359123	0.0	752.3613863805062	518.0279791867165	0.0
100	3.3333333333333335	703.867150897203	605.4068428394241	0.0	657.5538769568459	614.1640031844161	0.0	662.1223724312238	797.1948121937747	0.0	666.5026127700769	953.3328098301624	0.0	668.7456645755497	1011.859933777419	0.0	642.2900214905692	1007.8297251197523	0.0	676.1195095215417	973.2294851040733	0.0	750.9574955282874	615.1199155351919	0.0	770.5808863549264	799.4387169990727	0.0	809.222712397496	933.5614679674754	0.0	794.5737315489704	998.7035043476859	0.0	823.1948248788169	994.6428859998858	0.0	814.9928634823524	950.4035384415915	0.0	694.1991816854769	355.12687818806666	0.0	702.9975486758394	242.717751689238	0.0	743.4180636790064	297.18588833395853	0.0	613.8030366929074	401.0967407253617	0.0	586.8515343297718	523.8414100090346	0.0	649.4096280617349	504.53791644998455	0.0	772.406673392052	391.574821428313	0.0	806.3049936569388	519.4847635509392	0.0	749.8321313268674	512.0624888937723	0.0
101	3.3666666666666667	700.2348298724083	602.7229576765875	0.0	654.6018194998686	611.6177506087799	0.0	659.8200702838095	795.1185888975483	0.0	665.8946827423088	951.5656621158465	0.0	668.5165019960184	1008.7356296672142	0.0	641.1399801940553	1004.8891804005899	0.0	675.2432867824458	971.1492701697327	0.0	748.2906681898141	612.4497929594191	0.0	764.5912143874015	799.1175935702788	0.0	801.5559041196999	922.9390475533789	0.0	789.6039324636441	990.7961495017765	0.0	818.3188322475826	986.2201019260655	0.0	807.5482624568185	934.9276555596501	0.0	690.8318430660588	352.88182571746916	0.0	701.6442620123414	240.85969378795878	0.0	741.7906843955985	295.1227540374172	0.0	611.2512527323095	396.9870243274542	0.0	581.5397101132601	519.2474544241745	0.0	640.6520645011796	496.9736312148114	0.0	767.7504800843379	388.2795865321674	0.0	803.7571310698859	516.3266802051983	0.0	744.9198142055242	503.8827078574896	0.0
102	3.4	698.0161784884897	599.3442481489886	0.0	652.0331645104206	609.1868659302595	0.0	658.3408188736222	792.0224120636431	0.0	664.75174443469	949.6658954364482	0.0	669.7406442511447	1006.0406472525349	0.0	640.7665671276663	1002.3658983597497	0.0	674.0040429975217	968.7170169420597	0.0	746.8530905715573	609.3517226413746	0.0	757.1775088129868	795.1228555872444	0.0	791.1172506852892	912.43581986666	0.0	780.6042007277658	982.2882114187704	0.0	809.2734968266091	976.4147819434505	0.0	796.390066625805	920.704030459385	0.0	687.807934431155	351.0260926360918	0.0	701.4670613162186	239.66562374774588	0.0	739.653550543199	294.1745693743804	0.0	609.7375744716567	393.4737863148047	0.0	577.1785314832464	514.6626670618476	0.0	632.7486592116911	487.7881863730707	0.0	763.5086934876939	384.9349059864457	0.0	799.8393316919924	511.825452360387	0.0	738.0388117623249	493.39667764916095	0.0
